HIERARCHY
ROOT root
{
	OFFSET	0	13.1	24.9
	CHANNELS 6  Xposition Yposition Zposition Xrotation Yrotation Zrotation
	JOINT spine_1
	{
		OFFSET	0	9.99999	0
		CHANNELS 3  Xrotation Yrotation Zrotation
		JOINT spine_2
		{
			OFFSET	0	112	-10
			CHANNELS 3  Xrotation Yrotation Zrotation
			JOINT spine_3
			{
				OFFSET	0	206.5	19.3
				CHANNELS 3  Xrotation Yrotation Zrotation
				JOINT spine_4
				{
					OFFSET	0	110.4	14.6
					CHANNELS 3  Xrotation Yrotation Zrotation
					JOINT neck_1
					{
						OFFSET	0	71.8	-50.3
						CHANNELS 3  Xrotation Yrotation Zrotation
						JOINT neck_2
						{
							OFFSET	0	86.2	-25.8
							CHANNELS 3  Xrotation Yrotation Zrotation
							JOINT head_ee
							{
								OFFSET	0	179.8	-8.7
								CHANNELS 3  Xrotation Yrotation Zrotation
								End Site
								{
									OFFSET	1	0	0
								}
							}
						}
					}
					JOINT left_clavicle
					{
						OFFSET	-43.2	22.4	-70.8
						CHANNELS 3  Xrotation Yrotation Zrotation
						JOINT left_shoulder
						{
							OFFSET	-93.9	-5.79999	48.7
							CHANNELS 3  Xrotation Yrotation Zrotation
							JOINT left_elbow
							{
								OFFSET	-291.4	-30.8	15.2
								CHANNELS 3  Xrotation Yrotation Zrotation
								JOINT left_lowarm_twist
								{
									OFFSET	-110.7	-3.89999	13.6
									CHANNELS 3  Xrotation Yrotation Zrotation
									JOINT left_hand
									{
										OFFSET	-110.7	-3.89999	13.6
										CHANNELS 3  Xrotation Yrotation Zrotation
										JOINT left_ee
										{
											OFFSET	-80.8	-5.10001	12.1
											CHANNELS 3  Xrotation Yrotation Zrotation
											End Site
											{
												OFFSET	1	0	0
											}
										}
									}
								}
							}
						}
					}
					JOINT right_clavicle
					{
						OFFSET	43.2	22.4	-70.8
						CHANNELS 3  Xrotation Yrotation Zrotation
						JOINT right_shoulder
						{
							OFFSET	93.9	-5.79999	48.7
							CHANNELS 3  Xrotation Yrotation Zrotation
							JOINT right_elbow
							{
								OFFSET	291.4	-30.8	15.2
								CHANNELS 3  Xrotation Yrotation Zrotation
								JOINT right_lowarm_twist
								{
									OFFSET	110.7	-3.89999	13.6
									CHANNELS 3  Xrotation Yrotation Zrotation
									JOINT right_hand
									{
										OFFSET	110.7	-3.89999	13.6
										CHANNELS 3  Xrotation Yrotation Zrotation
										JOINT right_ee
										{
											OFFSET	80.8	-5.10001	12.1
											CHANNELS 3  Xrotation Yrotation Zrotation
											End Site
											{
												OFFSET	1	0	0
											}
										}
									}
								}
							}
						}
					}
				}
			}
		}
	}
	JOINT left_hip
	{
		OFFSET	-82.8	-127.5	0.300001
		CHANNELS 3  Xrotation Yrotation Zrotation
		JOINT left_knee
		{
			OFFSET	-28.2	-396.7	2.2
			CHANNELS 3  Xrotation Yrotation Zrotation
			JOINT left_ankle
			{
				OFFSET	-11.7	-411.3	35.4
				CHANNELS 3  Xrotation Yrotation Zrotation
				JOINT left_toes
				{
					OFFSET	0	-60	-88.6
					CHANNELS 3  Xrotation Yrotation Zrotation
					JOINT left_foot_ee
					{
						OFFSET	-22.5	-16.5	-42.2
						CHANNELS 3  Xrotation Yrotation Zrotation
						End Site
						{
							OFFSET	1	0	0
						}
					}
				}
			}
		}
	}
	JOINT right_hip
	{
		OFFSET	82.8	-127.5	0.300001
		CHANNELS 3  Xrotation Yrotation Zrotation
		JOINT right_knee
		{
			OFFSET	28.2	-396.7	2.2
			CHANNELS 3  Xrotation Yrotation Zrotation
			JOINT right_ankle
			{
				OFFSET	11.7	-411.3	35.4
				CHANNELS 3  Xrotation Yrotation Zrotation
				JOINT right_toes
				{
					OFFSET	0	-60	-88.6
					CHANNELS 3  Xrotation Yrotation Zrotation
					JOINT right_foot_ee
					{
						OFFSET	22.5	-16.5	-42.2
						CHANNELS 3  Xrotation Yrotation Zrotation
						End Site
						{
							OFFSET	1	0	0
						}
					}
				}
			}
		}
	}
}
MOTION
Frames: 13
Frame Time: 0.02
3232.01 722.977 -815.496 -28.4091 62.5594 26.0182 3.45382 -0.260129 0.525477 3.45392 -0.293039 0.50786 3.45126 -0.366349 0.457802 3.45109 -0.289451 0.509914 -14.9482 12.1283 -1.15896 -15.4702 23.8772 3.07278 -0.0 0.0 -0.0 5.77557 -3.56592 11.0845 -10.9429 -17.2781 53.872 1.93939 -43.8475 0.780624 -4.33868 -0.172928 0.526811 -0.740834 1.9973 -4.08219 -0.0 0.0 -0.0 6.83831 5.3327 -13.2011 -34.4663 12.2556 -68.5205 0.579448 16.0158 -0.0815184 -4.90338 0.198359 -0.594383 1.00443 -6.53582 -9.32089 0.0 0.0 0.0 -1.9233 6.24008 2.63561 -9.50926 0.273202 1.43213 32.881 16.5733 -4.26253 -18.0996 0.0 0.0 -0.0 0.0 -0.0 35.9813 6.60633 -0.38 6.9967 0.350663 1.01534 -8.92483 6.06004 -1.37374 2.97743 -0.0 -0.0 0.0 0.0 0.0 
3214.62 720.243 -825.938 -28.7997 62.4511 26.1232 3.53065 -0.221738 0.649631 3.53084 -0.262626 0.634205 3.52783 -0.354576 0.587764 3.52744 -0.257302 0.636384 -14.8439 11.7063 -1.73099 -15.3321 23.4051 2.35763 -0.0 0.0 -0.0 5.76735 -3.04113 11.0843 -12.3662 -18.2109 54.0127 1.80682 -41.826 0.690476 -4.63438 -0.186161 0.562225 -0.661844 0.719279 -4.11153 -0.0 0.0 -0.0 7.24451 5.90237 -14.0278 -34.1688 12.7697 -68.4034 0.509004 14.1521 -0.0631841 -5.64322 0.232684 -0.682532 0.741918 -7.2885 -7.88282 0.0 0.0 0.0 -2.26719 6.30481 2.75047 -11.4112 0.299114 1.7228 34.0198 17.0763 -4.38809 -17.3035 0.0 0.0 -0.0 0.0 -0.0 36.2758 6.93658 -0.627748 5.57885 0.269599 0.813091 -10.4926 5.94249 -1.61784 3.16219 -0.0 -0.0 0.0 0.0 0.0 
3199.63 722.464 -843.567 -30.9812 61.5662 28.1853 3.39579 -0.125684 0.78719 3.39612 -0.175518 0.777598 3.39359 -0.291647 0.741896 3.39286 -0.170822 0.778643 -13.0688 10.6365 -2.65548 -13.3761 21.8914 0.734539 -0.0 0.0 -0.0 5.22413 -3.006 9.99642 -13.5668 -20.0139 53.542 1.63724 -39.0404 0.580462 -4.6735 -0.187925 0.566906 -0.39692 0.340313 -2.50548 -0.0 0.0 -0.0 7.6721 6.79891 -14.9007 -31.6582 12.0815 -69.8273 0.478984 13.3482 -0.0560484 -5.87874 0.243851 -0.710501 0.507236 -9.64943 -7.27333 0.0 0.0 0.0 -1.47605 5.00431 2.10831 -11.6891 0.302091 1.76533 32.0166 17.0158 -4.17745 -17.1575 0.0 0.0 -0.0 0.0 -0.0 36.3024 7.91682 -2.18345 6.43769 0.318103 0.935834 -13.3849 6.84101 -2.07969 3.21824 -0.0 -0.0 0.0 0.0 0.0 
3182.16 723.637 -855.95 -31.6829 60.7013 28.1377 3.53749 -0.0162225 0.843868 3.53789 -0.0698852 0.841126 3.53667 -0.194836 0.821229 3.53574 -0.0626978 0.841692 -12.3193 10.4101 -3.30971 -12.5705 21.8628 -0.115544 -0.0 0.0 -0.0 5.48355 -2.54682 10.5315 -15.3009 -18.4329 54.1569 1.50543 -36.7112 0.499521 -4.7757 -0.19255 0.579126 -0.39951 0.110993 -2.6211 -0.0 0.0 -0.0 8.00784 6.99072 -15.602 -31.5052 13.8935 -68.9664 0.440242 12.3028 -0.0474481 -6.37435 0.267724 -0.769207 0.584858 -8.38758 -7.28473 0.0 0.0 0.0 -0.0764258 6.19977 2.27575 -14.0214 0.318942 2.12277 34.3376 17.596 -4.42891 -16.7026 0.0 0.0 -0.0 0.0 -0.0 36.1533 7.40948 -2.1724 6.2823 0.309191 0.913679 -13.6445 6.46724 -2.11679 3.16198 -0.0 -0.0 0.0 0.0 0.0 
3166.73 729.237 -866.638 -32.0866 60.1089 28.3669 3.64654 0.110806 0.901569 3.64699 0.0532144 0.906792 3.64761 -0.0811713 0.904719 3.64648 0.0627247 0.906184 -11.6781 9.91089 -3.89692 -11.8651 21.2892 -0.960741 -0.0 0.0 -0.0 5.5356 -2.25027 10.6449 -17.2743 -18.4285 54.5807 1.40834 -34.8997 0.442714 -4.95643 -0.200782 0.600718 -0.256393 -0.0535813 -1.73517 -0.0 0.0 -0.0 8.34781 7.99651 -16.3031 -30.0284 14.478 -68.9531 0.444084 12.4069 -0.0482701 -6.63887 0.280674 -0.800457 0.500634 -8.66106 -6.84352 0.0 0.0 0.0 1.03276 6.1819 1.78345 -14.9172 0.321545 2.26018 34.6352 17.6625 -4.46041 -16.5157 0.0 0.0 -0.0 0.0 -0.0 35.858 7.52423 -2.49163 5.78131 0.280867 0.84209 -15.496 6.82085 -2.41208 3.04902 -0.0 -0.0 0.0 0.0 0.0 
3149.41 733.748 -879.757 -31.8593 59.3784 28.0294 3.65918 0.174708 0.845947 3.65957 0.120526 0.855348 3.66118 -0.00679241 0.863771 3.66016 0.129704 0.854005 -10.3644 9.37712 -4.73728 -10.4485 20.8367 -2.18601 -0.0 0.0 -0.0 5.19164 -2.03716 9.96766 -19.7351 -18.4412 54.8851 1.31619 -33.1028 0.391174 -5.07874 -0.206391 0.615316 -0.104486 -0.114622 -0.746257 -0.0 0.0 -0.0 8.65035 8.64461 -16.936 -28.6864 14.8906 -68.4832 0.430619 12.0418 -0.045419 -6.86062 0.291641 -0.826608 0.416351 -8.89254 -6.38716 0.0 0.0 0.0 1.88604 5.89456 1.33049 -15.4909 0.322083 2.3482 34.9222 17.7144 -4.49046 -16.3321 0.0 0.0 -0.0 0.0 -0.0 35.1567 8.143 -3.11559 5.47103 0.26364 0.797632 -16.8208 7.24934 -2.6263 2.87262 -0.0 -0.0 0.0 0.0 0.0 
3118.08 740.878 -897.477 -30.4599 58.1581 26.2977 3.83408 0.292355 0.943214 3.83455 0.231746 0.959904 3.83819 0.0908653 0.983291 3.83692 0.24501 0.956604 -8.44576 8.2437 -7.21514 -8.32792 20.4471 -5.29448 -0.0 0.0 -0.0 4.75278 -1.80172 9.10746 -23.2062 -18.054 56.8163 1.16864 -30.0659 0.313866 -4.71312 -0.189716 0.571645 0.293824 -1.44837 1.35748 -0.0 0.0 -0.0 8.89893 8.19171 -17.4746 -27.7817 16.4874 -67.9646 0.386467 10.838 -0.0366614 -8.19236 0.359634 -0.982762 -0.14257 -11.2219 -3.72731 0.0 0.0 0.0 3.55635 5.54838 1.20268 -19.7894 0.298085 3.00714 38.5102 17.824 -4.84356 -16.3979 0.0 0.0 -0.0 0.0 -0.0 33.8256 7.54212 -3.46817 1.94829 0.0851186 0.286831 -11.7693 8.79648 -1.84397 3.07567 -0.0 -0.0 0.0 0.0 0.0 
3088.96 742.838 -907.208 -27.4236 57.0231 22.9555 3.92706 0.379535 1.10044 3.92768 0.308746 1.12236 3.93339 0.145564 1.15491 3.93168 0.326122 1.11743 -6.49066 7.65742 -8.56274 -6.198 20.411 -7.17542 -0.0 0.0 -0.0 4.32413 -1.37527 8.28191 -26.2218 -17.2672 59.2278 1.03951 -27.2453 0.251926 -4.37931 -0.174735 0.531681 0.437983 -2.30886 1.96461 -0.0 0.0 -0.0 9.11272 7.36302 -17.9397 -27.0345 18.6269 -66.8049 0.378651 10.6239 -0.0352061 -10.3109 0.47524 -1.22784 -0.709993 -12.9131 -0.842617 0.0 0.0 0.0 5.77531 5.27067 1.21233 -29.0751 0.0783808 4.41364 41.9123 17.5121 -5.14583 -14.3644 0.0 0.0 -0.0 0.0 -0.0 31.1821 8.69327 -3.37921 2.30128 0.101584 0.338487 -11.0568 10.7829 -1.75099 1.43642 -0.0 -0.0 0.0 0.0 0.0 
3072.09 740.605 -911.942 -26.1388 54.8788 21.7298 4.02258 0.431306 1.12539 4.02321 0.358826 1.15055 4.03006 0.193131 1.18962 4.02828 0.378575 1.1442 -8.05572 8.64211 -7.03908 -7.92731 21.0814 -5.10664 -0.0 0.0 -0.0 4.18106 -1.26091 8.00661 -27.5598 -16.2316 61.5239 0.953618 -25.2854 0.21391 -4.40943 -0.176077 0.53529 0.317474 -1.31734 1.57083 -0.0 0.0 -0.0 9.43234 7.90671 -18.6215 -25.3862 20.7985 -65.517 0.38887 10.9038 -0.0371147 -11.8199 0.56309 -1.39975 -1.15226 -14.0105 1.44756 0.0 0.0 0.0 7.26896 4.53904 1.64435 -33.8511 -0.1226 5.11878 41.0471 17.1293 -5.06237 -12.259 0.0 0.0 -0.0 0.0 -0.0 29.256 9.42548 -4.11261 5.35727 0.257384 0.78131 -8.13618 12.1679 -1.29434 -1.26509 0.0 0.0 0.0 0.0 0.0 
3054.35 739.375 -918.182 -24.7731 54.2622 19.823 4.069 0.261946 1.1937 4.06978 0.185463 1.20794 4.07323 0.0142933 1.22201 4.0712 0.207094 1.20442 -8.24578 9.53774 -6.83879 -8.14387 22.6047 -4.66389 -0.0 0.0 -0.0 3.48443 -0.177927 6.70733 -29.3856 -15.1017 64.4885 0.988651 -26.0927 0.229096 -4.55483 -0.182583 0.552705 0.235631 -0.536894 1.34932 -0.0 0.0 -0.0 9.40389 8.04761 -18.5593 -23.5078 22.7783 -64.3774 0.468076 13.0547 -0.0535573 -12.8452 0.625356 -1.51522 -1.45683 -14.4297 3.15583 0.0 0.0 0.0 6.16906 3.82993 3.20014 -34.3865 -0.148785 5.19675 37.9227 18.7893 -4.80646 -11.108 0.0 0.0 -0.0 0.0 -0.0 27.9313 9.87575 -3.69375 4.12602 0.191766 0.603882 -5.143 13.4738 -0.820981 -2.57826 0.0 0.0 0.0 0.0 0.0 
3027.8 748.01 -933.124 -21.9268 52.2702 16.4414 3.78863 0.319092 1.20361 3.7894 0.241862 1.22147 3.79416 0.0621942 1.24363 3.7921 0.257807 1.21821 -8.41471 10.9766 -5.91475 -8.37681 24.6445 -3.36778 -0.0 0.0 -0.0 3.53928 -0.461801 6.79706 -31.4895 -15.3626 66.6067 0.805889 -21.7624 0.154918 -4.8932 -0.197894 0.593167 0.290941 0.29887 2.06769 -0.0 0.0 -0.0 9.63663 8.61293 -19.0573 -22.3089 24.4097 -63.6624 0.566142 15.6663 -0.0778864 -14.0636 0.702032 -1.65099 -1.83027 -15.2476 5.0932 0.0 0.0 0.0 10.9992 3.46074 1.64251 -39.1831 -0.415616 5.88359 40.6334 14.4308 -4.98057 -10.5115 0.0 0.0 -0.0 0.0 -0.0 24.6273 10.4907 -3.34265 4.64229 0.218815 0.678446 -1.68935 16.6843 -0.274208 -2.69099 0.0 0.0 0.0 0.0 0.0 
3005.29 751.439 -941.711 -20.8393 51.9022 15.321 3.82193 0.568608 1.10395 3.82247 0.497214 1.13789 3.83208 0.327816 1.19772 3.83044 0.512848 1.13093 -8.49749 10.4194 -6.13538 -8.45022 23.7567 -3.69968 -0.0 0.0 -0.0 3.16921 -0.0012571 6.10825 -33.5428 -15.2205 68.6611 0.76911 -20.8565 0.141552 -4.77351 -0.192451 0.578865 0.339301 0.443089 2.45054 -0.0 0.0 -0.0 9.69936 8.85817 -19.1911 -20.9653 25.5752 -63.2529 0.580913 16.0542 -0.0819232 -14.7088 0.743803 -1.72222 -2.04451 -16.0331 6.03918 0.0 0.0 0.0 12.6232 3.29683 1.30375 -41.7748 -0.583521 6.24492 39.879 14.2962 -4.91158 -10.5743 0.0 0.0 -0.0 0.0 -0.0 23.371 10.5629 -3.21353 2.92944 0.131672 0.430164 0.0899221 16.8489 0.0145476 -3.60488 0.0 0.0 0.0 0.0 0.0 
2979.86 745.017 -953.343 -19.6298 51.8626 13.9744 3.83578 0.616603 1.23954 3.83648 0.536485 1.27626 3.84808 0.347102 1.34021 3.846 0.55439 1.26859 -8.13569 11.9673 -1.97831 -8.18561 23.7493 0.715131 -0.0 0.0 -0.0 2.11407 2.08311 4.2409 -35.5933 -15.3544 70.6707 0.816057 -22.0109 0.158709 -6.23904 -0.261156 0.753201 -0.209245 1.96182 -0.564733 -0.0 0.0 -0.0 9.97274 10.0207 -19.7736 -19.319 26.4921 -61.7911 0.646457 17.757 -0.100985 -14.7968 0.749564 -1.73191 -2.11285 -16.2784 6.34038 0.0 0.0 0.0 17.6366 3.9248 -0.760332 -50.4132 -1.25835 7.38884 39.4735 12.4644 -4.85241 -10.0347 0.0 0.0 -0.0 0.0 -0.0 21.1267 10.6569 -2.71701 2.27218 0.100215 0.334233 3.92425 16.8264 0.627549 -2.81809 0.0 0.0 0.0 0.0 0.0 
